<?xml version="1.0" encoding="UTF-8" standalone="no"?>
<!-- Created with Inkscape (http://www.inkscape.org/) -->

<svg
   version="1.1"
   id="svg1"
   width="781.19855"
   height="781.17657"
   viewBox="0 0 781.19855 781.17657"
   sodipodi:docname="olive-vectorportal-graphics.svg"
   inkscape:version="1.4.2 (1:1.4.2+202505120737+ebf0e940d0)"
   inkscape:export-filename="../sidebar_brand2x.png"
   inkscape:export-xdpi="8.8479424"
   inkscape:export-ydpi="8.8479424"
   xmlns:inkscape="http://www.inkscape.org/namespaces/inkscape"
   xmlns:sodipodi="http://sodipodi.sourceforge.net/DTD/sodipodi-0.dtd"
   xmlns="http://www.w3.org/2000/svg"
   xmlns:svg="http://www.w3.org/2000/svg">
  <defs
     id="defs1">
    <linearGradient
       x1="0"
       y1="0"
       x2="1"
       y2="0"
       gradientUnits="userSpaceOnUse"
       gradientTransform="matrix(-1.27e-5,290,290,1.27e-5,3004.84,5370.84)"
       spreadMethod="pad"
       id="linearGradient4">
      <stop
         style="stop-opacity:1;stop-color:#fce88e"
         offset="0"
         id="stop2" />
      <stop
         style="stop-opacity:1;stop-color:#f7c417"
         offset="0.5"
         id="stop3" />
      <stop
         style="stop-opacity:1;stop-color:#f5a219"
         offset="1"
         id="stop4" />
    </linearGradient>
    <clipPath
       clipPathUnits="userSpaceOnUse"
       id="clipPath4">
      <path
         d="m 0,5370 h 6010 v 291 H 0 Z"
         transform="translate(0,-2.4999999e-5)"
         id="path4" />
    </clipPath>
    <linearGradient
       x1="0"
       y1="0"
       x2="1"
       y2="0"
       gradientUnits="userSpaceOnUse"
       gradientTransform="matrix(1596.6,596.231,-596.231,1596.6,2590.24,981.06)"
       spreadMethod="pad"
       id="linearGradient64">
      <stop
         style="stop-color:#27270f;stop-opacity:1;"
         offset="0"
         id="stop63" />
      <stop
         style="stop-color:#100f0a;stop-opacity:1;"
         offset="1"
         id="stop64" />
    </linearGradient>
    <clipPath
       clipPathUnits="userSpaceOnUse"
       id="clipPath64">
      <path
         d="m 3112.78,1305.91 c 483.3,183.9 1174.81,-3.97 937.06,223.94 -118.28,113.38 -313.93,173.9 -525.88,173.9 -172.73,0 -356.3,-40.19 -517.69,-124.74 -522.55,-273.73 -715.5,-871.17 -554.38,-1067.791 119.04,-145.258 -128.69,494.301 660.89,794.691 z"
         transform="translate(0,-2.4999999e-5)"
         id="path64" />
    </clipPath>
    <linearGradient
       x1="0"
       y1="0"
       x2="1"
       y2="0"
       gradientUnits="userSpaceOnUse"
       gradientTransform="matrix(478.223,0,0,478.223,3253.46,808.43)"
       spreadMethod="pad"
       id="linearGradient66">
      <stop
         style="stop-opacity:1;stop-color:#f0e8c7"
         offset="0"
         id="stop65" />
      <stop
         style="stop-color:#3a3a11;stop-opacity:1;"
         offset="1"
         id="stop66" />
    </linearGradient>
    <clipPath
       clipPathUnits="userSpaceOnUse"
       id="clipPath66">
      <path
         d="m 3324.09,696.5 c 27.45,-57.102 154.37,-53.051 283.51,9.031 129.14,62.071 211.58,158.668 184.13,215.758 -12.96,26.981 -48.16,40.313 -95.31,40.313 -52.61,0 -120.08,-16.582 -188.2,-49.313 C 3379.1,850.191 3296.64,753.59 3324.09,696.5 Z"
         transform="translate(0,-2.4999999e-5)"
         id="path66" />
    </clipPath>
    <linearGradient
       x1="0"
       y1="0"
       x2="1"
       y2="0"
       gradientUnits="userSpaceOnUse"
       gradientTransform="matrix(-121.196,-59.9948,83.0173,-169.299,4201.99,1405.64)"
       spreadMethod="pad"
       id="linearGradient68">
      <stop
         style="stop-opacity:1;stop-color:#909129"
         offset="0"
         id="stop67" />
      <stop
         style="stop-opacity:1;stop-color:#433c1d"
         offset="1"
         id="stop68" />
    </linearGradient>
    <clipPath
       clipPathUnits="userSpaceOnUse"
       id="clipPath68">
      <path
         d="m 4186,1218.71 c 25.01,12.16 13.9,86.61 -24.78,166.34 -35.1,72.28 -80.81,124.04 -107.68,124.04 -2.78,0 -5.34,-0.54 -7.68,-1.69 -25.03,-12.13 -13.92,-86.6 24.77,-166.32 38.71,-79.73 90.34,-134.5 115.37,-122.37 z"
         transform="translate(0,-2.4999999e-5)"
         id="path68" />
    </clipPath>
    <linearGradient
       x1="0"
       y1="0"
       x2="1"
       y2="0"
       gradientUnits="userSpaceOnUse"
       gradientTransform="matrix(1356.89,0,0,1356.89,3115.2,2275.94)"
       spreadMethod="pad"
       id="linearGradient75">
      <stop
         style="stop-opacity:1;stop-color:#6e9240"
         offset="0"
         id="stop74" />
      <stop
         style="stop-opacity:1;stop-color:#365431"
         offset="1"
         id="stop75" />
    </linearGradient>
    <clipPath
       clipPathUnits="userSpaceOnUse"
       id="clipPath75">
      <path
         d="m 4239.6,0 c 130.19,380.852 209.2,780.691 228.45,1185.07 19.74,404.33 -20.12,812.17 -113.35,1207.78 -93.03,395.84 -238.25,779.45 -424.52,1141.96 -93.17,181.3 -196.62,357.47 -309.9,527.5 -56.67,85 -115.8,168.48 -177.74,250.15 -30.98,40.84 -62.66,81.2 -95.25,121.09 -16.3,19.94 -32.84,39.74 -49.72,59.44 -16.98,19.8 -33.76,39.07 -52.5,59.24 l -129.69,-125.17 c 16.12,-16.09 33.13,-34.12 49.57,-51.9 16.54,-17.93 32.96,-36.15 49.19,-54.58 32.5,-36.85 64.39,-74.5 95.68,-112.7 62.59,-76.42 122.85,-155.08 180.87,-235.43 115.99,-160.77 223.06,-328.4 320.42,-501.62 194.63,-346.43 350.61,-715.77 456.26,-1100.21 105.82,-384.23 160.21,-783.74 155.62,-1184.2 C 4418.9,785.961 4355.5,385.48 4239.6,0 Z"
         transform="translate(0,-2.4999999e-5)"
         id="path75" />
    </clipPath>
    <linearGradient
       x1="0"
       y1="0"
       x2="1"
       y2="0"
       gradientUnits="userSpaceOnUse"
       gradientTransform="matrix(2004.07,0,0,2004.07,2144.26,3091.47)"
       spreadMethod="pad"
       id="linearGradient78">
      <stop
         style="stop-opacity:1;stop-color:#afc693"
         offset="0"
         id="stop77" />
      <stop
         style="stop-opacity:1;stop-color:#6e8555"
         offset="1"
         id="stop78" />
    </linearGradient>
    <clipPath
       clipPathUnits="userSpaceOnUse"
       id="clipPath78">
      <path
         d="m 3086.17,3553.55 c -53.26,39.06 -159.75,4.1 -221.2,-4.09 0,0 -426.02,512.04 -716.87,606.26 -32.77,-139.27 110.6,-946.25 571.89,-1462.39 235.62,-263.65 661.12,-737.36 1423.05,-651.34 l 4.52,90.98 C 3975.51,2542.6 3270.5,3418.37 3086.17,3553.55 Z"
         transform="translate(0,-2.4999999e-5)"
         id="path78" />
    </clipPath>
    <linearGradient
       x1="0"
       y1="0"
       x2="1"
       y2="0"
       gradientUnits="userSpaceOnUse"
       gradientTransform="matrix(-2.75343,665.91,-665.91,-2.75343,2016.01,1173.33)"
       spreadMethod="pad"
       id="linearGradient81">
      <stop
         style="stop-opacity:1;stop-color:#81ab75"
         offset="0"
         id="stop80" />
      <stop
         style="stop-opacity:1;stop-color:#365431"
         offset="1"
         id="stop81" />
    </linearGradient>
    <clipPath
       clipPathUnits="userSpaceOnUse"
       id="clipPath81">
      <path
         d="m 3822.57,1822.45 122.89,114.69 C 3457.27,2075 2907.74,2132.98 2374.94,2132.98 1387.73,2132.98 457.828,1933.94 81.2148,1674.96 900.492,1044.12 3273.66,1306.3 3822.57,1822.45 Z"
         transform="translate(0,-2.4999999e-5)"
         id="path81" />
    </clipPath>
    <linearGradient
       x1="0"
       y1="0"
       x2="1"
       y2="0"
       gradientUnits="userSpaceOnUse"
       gradientTransform="matrix(1643.38,0,0,1643.38,4147.5,3036.18)"
       spreadMethod="pad"
       id="linearGradient87">
      <stop
         style="stop-opacity:1;stop-color:#909129"
         offset="0"
         id="stop86" />
      <stop
         style="stop-opacity:1;stop-color:#433c1d"
         offset="1"
         id="stop87" />
    </linearGradient>
    <clipPath
       clipPathUnits="userSpaceOnUse"
       id="clipPath87">
      <path
         d="m 4513.75,3468.82 c -501.84,-423.84 -417.87,-971.45 -163.86,-1177.03 286.75,-114.7 -154.03,407.59 262.18,929.88 273.09,342.73 710.02,449.24 1179.75,517.51 -47.34,33.61 -163.15,57.07 -312.99,57.07 -277.99,0 -673.04,-80.77 -965.08,-327.43 z"
         transform="translate(0,-2.4999999e-5)"
         id="path87" />
    </clipPath>
    <linearGradient
       x1="0"
       y1="0"
       x2="1"
       y2="0"
       gradientUnits="userSpaceOnUse"
       gradientTransform="matrix(58.4547,67.8836,-67.8836,58.4547,4372.36,2295.73)"
       spreadMethod="pad"
       id="linearGradient90">
      <stop
         style="stop-opacity:1;stop-color:#909129"
         offset="0"
         id="stop89" />
      <stop
         style="stop-opacity:1;stop-color:#433c1d"
         offset="1"
         id="stop90" />
    </linearGradient>
    <clipPath
       clipPathUnits="userSpaceOnUse"
       id="clipPath90">
      <path
         d="m 4554.43,2198.03 c 16.13,18.74 -39.21,92.88 -123.64,165.56 -71.22,61.34 -140.35,102.05 -169.94,102.05 -5.49,0 -9.62,-1.4 -12.15,-4.35 -16.16,-18.74 39.22,-92.87 123.64,-165.56 84.42,-72.69 165.93,-116.45 182.09,-97.7 z"
         transform="translate(0,-2.4999999e-5)"
         id="path90" />
    </clipPath>
    <linearGradient
       x1="0"
       y1="0"
       x2="1"
       y2="0"
       gradientUnits="userSpaceOnUse"
       gradientTransform="matrix(242.656,0,0,242.656,4282.08,3030.92)"
       spreadMethod="pad"
       id="linearGradient94">
      <stop
         style="stop-opacity:1;stop-color:#909129"
         offset="0"
         id="stop93" />
      <stop
         style="stop-opacity:1;stop-color:#433c1d"
         offset="1"
         id="stop94" />
    </linearGradient>
    <clipPath
       clipPathUnits="userSpaceOnUse"
       id="clipPath94">
      <path
         d="m 4241.67,3133.15 c -41.91,-81.19 -39.13,-194.28 12.09,-250.39 51.21,-56.15 131.8,-34.31 173.37,47.11 44.18,86.48 34.46,192.48 -16.73,248.57 -19.57,21.45 -42.68,31.73 -66.13,31.73 -37.91,0 -76.67,-26.91 -102.6,-77.02 z"
         transform="translate(0,-2.4999999e-5)"
         id="path94" />
    </clipPath>
  </defs>
  <sodipodi:namedview
     id="namedview1"
     pagecolor="#ffffff"
     bordercolor="#000000"
     borderopacity="0.25"
     inkscape:showpageshadow="2"
     inkscape:pageopacity="0.0"
     inkscape:pagecheckerboard="0"
     inkscape:deskcolor="#d1d1d1"
     inkscape:zoom="0.60907074"
     inkscape:cx="380.08721"
     inkscape:cy="450.68657"
     inkscape:window-width="1920"
     inkscape:window-height="1139"
     inkscape:window-x="0"
     inkscape:window-y="0"
     inkscape:window-maximized="1"
     inkscape:current-layer="g1">
    <inkscape:page
       x="0"
       y="0"
       inkscape:label="1"
       id="page1"
       width="781.19855"
       height="781.17657"
       margin="0"
       bleed="0" />
  </sodipodi:namedview>
  <g
     id="g1"
     inkscape:groupmode="layer"
     inkscape:label="1"
     transform="translate(-112.99697,-80.460039)">
    <g
       id="g98"
       transform="rotate(87.181546,452.97402,520.35004)">
      <path
         id="path62"
         d="m 394.64666,559.78 c -69.72933,33.68133 -104.14,111.05733 -74.64533,156.93853 30.35866,47.22396 122.70799,55.71095 191.16532,14.92813 C 579.61999,690.8664 581.26799,605.17333 545.57599,567.064 513.35065,532.65334 457.14132,529.59334 394.64666,559.78"
         style="fill:#131106;fill-opacity:1;fill-rule:nonzero;stroke:none;stroke-width:0.133333" />
      <path
         id="path63"
         d="m 3112.78,1305.91 c 483.3,183.9 1174.81,-3.97 937.06,223.94 -118.28,113.38 -313.93,173.9 -525.88,173.9 -172.73,0 -356.3,-40.19 -517.69,-124.74 -522.55,-273.73 -715.5,-871.17 -554.38,-1067.791 119.04,-145.258 -128.69,494.301 660.89,794.691"
         style="fill:url(#linearGradient64);fill-opacity:1;fill-rule:nonzero;stroke:none"
         transform="matrix(0.13333333,0,0,-0.13333333,0,775.41333)"
         clip-path="url(#clipPath64)" />
      <path
         id="path65"
         d="m 3324.09,696.5 c 27.45,-57.102 154.37,-53.051 283.51,9.031 129.14,62.071 211.58,158.668 184.13,215.758 -12.96,26.981 -48.16,40.313 -95.31,40.313 -52.61,0 -120.08,-16.582 -188.2,-49.313 C 3379.1,850.191 3296.64,753.59 3324.09,696.5"
         style="fill:url(#linearGradient66);fill-opacity:1;fill-rule:nonzero;stroke:none"
         transform="matrix(0.13333333,0,0,-0.13333333,0,775.41333)"
         clip-path="url(#clipPath66)" />
      <path
         id="path67"
         d="m 4186,1218.71 c 25.01,12.16 13.9,86.61 -24.78,166.34 -35.1,72.28 -80.81,124.04 -107.68,124.04 -2.78,0 -5.34,-0.54 -7.68,-1.69 -25.03,-12.13 -13.92,-86.6 24.77,-166.32 38.71,-79.73 90.34,-134.5 115.37,-122.37"
         style="fill:url(#linearGradient68);fill-opacity:1;fill-rule:nonzero;stroke:none"
         transform="matrix(0.13333333,0,0,-0.13333333,0,775.41333)"
         clip-path="url(#clipPath68)" />
      <path
         id="path69"
         d="m 407.71866,734.8852 c -11.36934,0.35626 -22.75734,-0.4464 -33.936,-2.90787 -5.58934,-1.22133 -11.10934,-2.89213 -16.536,-4.9812 -5.41334,-2.11093 -10.73867,-4.63227 -15.944,-7.5484 8.38133,8.50413 18.85733,15.17493 30.25333,19.70827 11.41333,4.54533 23.67733,6.9344 35.91733,7.7532 12.264,0.8348 24.53467,0.0853 36.57067,-1.56147 6.02133,-0.824 11.98267,-1.9396 17.904,-3.1636 l 4.408,-0.99733 c 1.50533,-0.34534 3.104,-0.75054 4.62533,-1.17867 3.07067,-0.86147 6.07867,-1.84787 9.02667,-2.9588 5.87733,-2.26933 11.54,-4.9308 16.97466,-7.9548 5.41067,-3.06667 10.64934,-6.40093 15.608,-10.1172 4.95467,-3.71187 9.71067,-7.68947 14.132,-12.0228 4.45067,-4.29853 8.584,-8.9292 12.37067,-13.8344 7.53067,-9.81466 13.66,-20.86933 17.12933,-32.76306 3.47467,-11.8464 4.168,-24.53707 1.20134,-36.1264 -0.188,5.964 -1.004,11.784 -2.38267,17.384 -1.39733,5.6028 -3.36267,10.98666 -5.81467,16.10133 -4.892,10.24 -11.58533,19.44787 -19.28533,27.66813 -7.71333,8.21467 -16.41333,15.49854 -25.736,21.8 -4.67333,3.1308 -9.46533,6.08133 -14.43067,8.6652 -4.94133,2.62547 -10.008,4.98013 -15.18133,6.90147 -2.57867,0.98226 -5.17333,1.87613 -7.78667,2.6344 -1.31733,0.38546 -2.57866,0.72133 -3.95199,1.05213 l -4.22267,1.00933 c -5.60667,1.36507 -11.24533,2.52814 -16.89067,3.58027 -11.28533,2.1 -22.64933,3.50093 -34.02266,3.85827"
         style="fill:#42361a;fill-opacity:1;fill-rule:nonzero;stroke:none;stroke-width:0.133333" />
      <path
         id="path70"
         d="m 508.25332,559.416 c -5.63067,0 -10.196,4.56534 -10.196,10.196 0,5.63067 4.56533,10.19467 10.196,10.19467 5.632,0 10.19333,-4.564 10.19333,-10.19467 0,-5.63066 -4.56133,-10.196 -10.19333,-10.196"
         style="fill:#464617;fill-opacity:1;fill-rule:nonzero;stroke:none;stroke-width:0.133333" />
      <path
         id="path71"
         d="m 467.42399,587.044 c 0,-3.996 -3.23733,-7.23733 -7.23733,-7.23733 -3.996,0 -7.23734,3.24133 -7.23734,7.23733 0,3.996 3.24134,7.23733 7.23734,7.23733 4,0 7.23733,-3.24133 7.23733,-7.23733"
         style="fill:#3c3d12;fill-opacity:1;fill-rule:nonzero;stroke:none;stroke-width:0.133333" />
      <path
         id="path72"
         d="m 511.21199,613.14 c 0,3.99733 3.23866,7.23733 7.236,7.23733 3.99733,0 7.23733,-3.24 7.23733,-7.23733 0,-3.99467 -3.24,-7.236 -7.23733,-7.236 -3.99734,0 -7.236,3.24133 -7.236,7.236"
         style="fill:#3f401c;fill-opacity:1;fill-rule:nonzero;stroke:none;stroke-width:0.133333" />
      <path
         id="path73"
         d="m 546.42265,587.044 c -1.73333,1.51867 -0.30133,3.91467 2.36667,4.052 23.10533,-22.04533 43.48533,-50.25066 43.48533,-50.25066 0,0 1.18267,-15.432 -14.47466,-13.92667 3.83733,27.25067 -31.37734,60.12533 -31.37734,60.12533"
         style="fill:#6e9240;fill-opacity:1;fill-rule:nonzero;stroke:none;stroke-width:0.133333" />
      <path
         id="path74"
         d="m 4239.6,0 c 130.19,380.852 209.2,780.691 228.45,1185.07 19.74,404.33 -20.12,812.17 -113.35,1207.78 -93.03,395.84 -238.25,779.45 -424.52,1141.96 -93.17,181.3 -196.62,357.47 -309.9,527.5 -56.67,85 -115.8,168.48 -177.74,250.15 -30.98,40.84 -62.66,81.2 -95.25,121.09 -16.3,19.94 -32.84,39.74 -49.72,59.44 -16.98,19.8 -33.76,39.07 -52.5,59.24 l -129.69,-125.17 c 16.12,-16.09 33.13,-34.12 49.57,-51.9 16.54,-17.93 32.96,-36.15 49.19,-54.58 32.5,-36.85 64.39,-74.5 95.68,-112.7 62.59,-76.42 122.85,-155.08 180.87,-235.43 115.99,-160.77 223.06,-328.4 320.42,-501.62 194.63,-346.43 350.61,-715.77 456.26,-1100.21 105.82,-384.23 160.21,-783.74 155.62,-1184.2 C 4418.9,785.961 4355.5,385.48 4239.6,0"
         style="fill:url(#linearGradient75);fill-opacity:1;fill-rule:nonzero;stroke:none"
         transform="matrix(0.13333333,0,0,-0.13333333,0,775.41333)"
         clip-path="url(#clipPath75)" />
      <path
         id="path76"
         d="m 411.62666,299.55734 c -7.10267,-5.208 -27.26267,1.50267 -35.456,2.59467 0,0 -49.33867,-71.27733 -94.536,-83.70267 -4.36933,18.57067 13.7,129.036 75.20533,197.856 31.416,35.152 88.15067,98.312 189.74133,86.84266 l -4.37067,-24.57866 c -22.93866,-54.61867 -106.00399,-160.988 -130.58399,-179.012"
         style="fill:#5e7545;fill-opacity:1;fill-rule:nonzero;stroke:none;stroke-width:0.133333" />
      <path
         id="path77"
         d="m 3086.17,3553.55 c -53.26,39.06 -159.75,4.1 -221.2,-4.09 0,0 -426.02,512.04 -716.87,606.26 -32.77,-139.27 110.6,-946.25 571.89,-1462.39 235.62,-263.65 661.12,-737.36 1423.05,-651.34 l 4.52,90.98 C 3975.51,2542.6 3270.5,3418.37 3086.17,3553.55"
         style="fill:url(#linearGradient78);fill-opacity:1;fill-rule:nonzero;stroke:none"
         transform="matrix(0.13333333,0,0,-0.13333333,0,775.41333)"
         clip-path="url(#clipPath78)" />
      <path
         id="path79"
         d="m 447.48266,423.62001 c -20.536,-16.98534 -40.08,-35.24534 -58.65067,-54.47067 -18.54667,-19.248 -36.20133,-39.42267 -52.352,-60.808 15.192,22.08133 31.98267,43.076 49.74267,63.216 17.79066,20.12133 36.632,39.36 56.616,57.43333 19.99733,18.048 41.13733,34.97467 63.87999,49.82667 11.37467,7.40933 23.15867,14.28666 35.44534,20.33466 12.268,6.03734 25.132,11.26934 38.42533,15.09734 l 3.70533,-13.71067 c -25.17733,-6.09067 -49.20133,-17.37733 -71.95733,-30.76933 -22.764,-13.46667 -44.312,-29.192 -64.85466,-46.14933"
         style="fill:#5e7545;fill-opacity:1;fill-rule:nonzero;stroke:none;stroke-width:0.133333" />
      <path
         id="path80"
         d="m 3822.57,1822.45 122.89,114.69 C 3457.27,2075 2907.74,2132.98 2374.94,2132.98 1387.73,2132.98 457.828,1933.94 81.2148,1674.96 900.492,1044.12 3273.66,1306.3 3822.57,1822.45"
         style="fill:url(#linearGradient81);fill-opacity:1;fill-rule:nonzero;stroke:none"
         transform="matrix(0.13333333,0,0,-0.13333333,0,775.41333)"
         clip-path="url(#clipPath81)" />
      <path
         id="path82"
         d="m 555.27732,516.00667 c -10.88667,0.0133 -21.752,0.132 -32.612,0.312 -21.71733,0.364 -43.41333,0.96133 -65.1,1.69467 -43.368,1.484 -86.704,3.51066 -130.00666,6.052 -43.3,2.56 -86.57467,5.61066 -129.768,9.58933 -21.596,2.004 -43.17066,4.24 -64.68906,6.94133 -10.75947,1.35734 -21.5032,2.82934 -32.2156,4.508 -10.708936,1.688 -21.395869,3.55734 -31.980268,5.88667 10.645333,-2.04 21.366666,-3.61333 32.106268,-5.00667 10.74266,-1.38533 21.50933,-2.56266 32.28746,-3.62266 21.55787,-2.112 43.15654,-3.75467 64.76987,-5.16534 43.22933,-2.796 86.51466,-4.66266 129.81066,-6.03866 43.29467,-1.356 86.60533,-2.19734 129.90267,-2.49467 21.65066,-0.14 43.29599,-0.14533 64.92133,0.0813 10.81066,0.11734 21.61733,0.292 32.40533,0.57467 10.77333,0.29333 21.57067,0.65333 32.18,1.37067 l 0.788,-14.176 c -11.03067,-0.44534 -21.90933,-0.504 -32.8,-0.50667"
         style="fill:#5e7545;fill-opacity:1;fill-rule:nonzero;stroke:none;stroke-width:0.133333" />
      <path
         id="path83"
         d="m 302.85199,565.41867 c 0,-4.02267 -3.26,-7.284 -7.28266,-7.284 -4.02134,0 -7.28267,3.26133 -7.28267,7.284 0,4.02133 3.26133,7.284 7.28267,7.284 4.02266,0 7.28266,-3.26267 7.28266,-7.284"
         style="fill:#8ac18a;fill-opacity:1;fill-rule:nonzero;stroke:none;stroke-width:0.133333" />
      <path
         id="path84"
         d="m 144.64,522.52 c 0,-2.412 -1.956,-4.368 -4.36934,-4.368 -2.412,0 -4.36933,1.956 -4.36933,4.368 0,2.41467 1.95733,4.37067 4.36933,4.37067 2.41334,0 4.36934,-1.956 4.36934,-4.37067"
         style="fill:#8ac18a;fill-opacity:1;fill-rule:nonzero;stroke:none;stroke-width:0.133333" />
      <path
         id="path85"
         d="m 608.74932,291.05601 c -62.36267,40.35466 -107.05333,124.53066 -34.956,184.97466 72.096,60.44533 131.08533,21.12 174.77999,-14.564 43.69467,-35.68533 68.456,-123.80266 48.064,-165.31199 -28.36933,-57.752 -125.98666,-45.152 -187.88799,-5.09867"
         style="fill:#909129;fill-opacity:1;fill-rule:nonzero;stroke:none;stroke-width:0.133333" />
      <path
         id="path86"
         d="m 4513.75,3468.82 c -501.84,-423.84 -417.87,-971.45 -163.86,-1177.03 286.75,-114.7 -154.03,407.59 262.18,929.88 273.09,342.73 710.02,449.24 1179.75,517.51 -47.34,33.61 -163.15,57.07 -312.99,57.07 -277.99,0 -673.04,-80.77 -965.08,-327.43"
         style="fill:url(#linearGradient87);fill-opacity:1;fill-rule:nonzero;stroke:none"
         transform="matrix(0.13333333,0,0,-0.13333333,0,775.41333)"
         clip-path="url(#clipPath87)" />
      <path
         id="path88"
         d="m 705.60798,401.56801 c 0,8.14533 6.84534,14.748 15.29334,14.748 8.44533,0 15.29199,-6.60267 15.29199,-14.748 0,-8.144 -6.84666,-14.74667 -15.29199,-14.74667 -8.448,0 -15.29334,6.60267 -15.29334,14.74667"
         style="fill:#f0e8c7;fill-opacity:1;fill-rule:nonzero;stroke:none;stroke-width:0.133333" />
      <path
         id="path89"
         d="m 4554.43,2198.03 c 16.13,18.74 -39.21,92.88 -123.64,165.56 -71.22,61.34 -140.35,102.05 -169.94,102.05 -5.49,0 -9.62,-1.4 -12.15,-4.35 -16.16,-18.74 39.22,-92.87 123.64,-165.56 84.42,-72.69 165.93,-116.45 182.09,-97.7"
         style="fill:url(#linearGradient90);fill-opacity:1;fill-rule:nonzero;stroke:none"
         transform="matrix(0.13333333,0,0,-0.13333333,0,775.41333)"
         clip-path="url(#clipPath90)" />
      <path
         id="path91"
         d="m 780.56131,373.40934 c -3.84133,7.60533 -8.2,14.88133 -12.94266,21.86267 -9.48,13.96266 -20.43467,26.78666 -32.56534,38.3 -12.15199,11.49199 -25.53199,21.64133 -40.15733,29.94266 -7.304,4.168 -14.924,7.85733 -22.85066,11.072 -7.92534,3.24533 -16.15867,5.896 -24.69867,8.33333 17.70667,1.64934 35.956,-1.79733 52.75733,-8.612 16.83067,-6.86266 32.256,-17.15333 45.45333,-29.62933 13.20534,-12.488 24.284,-27.18266 32.44534,-43.34266 4.04666,-8.092 7.37733,-16.55734 9.608,-25.31467 1.1,-4.38133 1.95333,-8.82133 2.41066,-13.30133 0.47467,-4.46934 0.54667,-8.98534 0.0613,-13.40267 -2.37467,8.54933 -5.67067,16.47333 -9.52134,24.092"
         style="fill:#a6ac43;fill-opacity:1;fill-rule:nonzero;stroke:none;stroke-width:0.133333" />
      <path
         id="path92"
         d="m 594.57732,467.32267 c 0.772,-1.896 -1.30267,-3.27733 -3.46667,-2.35867 -9.58,26.70534 -14.58266,57.33334 -14.58266,57.33334 0,0 5.14,12.91466 16.924,5.66266 -13.76267,-20.52133 1.12533,-60.63733 1.12533,-60.63733"
         style="fill:#6e9240;fill-opacity:1;fill-rule:nonzero;stroke:none;stroke-width:0.133333" />
      <path
         id="path93"
         d="m 4241.67,3133.15 c -41.91,-81.19 -39.13,-194.28 12.09,-250.39 51.21,-56.15 131.8,-34.31 173.37,47.11 44.18,86.48 34.46,192.48 -16.73,248.57 -19.57,21.45 -42.68,31.73 -66.13,31.73 -37.91,0 -76.67,-26.91 -102.6,-77.02"
         style="fill:url(#linearGradient94);fill-opacity:1;fill-rule:nonzero;stroke:none"
         transform="matrix(0.13333333,0,0,-0.13333333,0,775.41333)"
         clip-path="url(#clipPath94)" />
      <path
         id="path95"
         d="m 585.51599,350.42134 c 5.86266,5.02667 6.82,16.428 2.15466,25.45467 -4.668,9.03466 -13.204,12.27466 -19.05733,7.24266 -5.85733,-5.032 -6.82267,-16.43466 -2.15067,-25.46133 4.664,-9.03067 13.19734,-12.272 19.05334,-7.236"
         style="fill:#909129;fill-opacity:1;fill-rule:nonzero;stroke:none;stroke-width:0.133333" />
      <path
         id="path96"
         d="m 578.31732,369.89067 c 5.21867,-6.34666 2.08,-11.08933 7.12667,-13.77733 5.04266,-2.692 7.076,14.544 -2.01867,23.428 -9.092,8.88 -18.21467,1.172 -16.68,-3.492 1.87067,-5.70667 6.356,0.192 11.572,-6.15867"
         style="fill:#b7bb6d;fill-opacity:1;fill-rule:nonzero;stroke:none;stroke-width:0.133333" />
      <path
         id="path97"
         d="m 574.55199,380.43867 c 0.35333,1.336 2.58,1.25067 5.016,-0.216 2.524,-1.528 4.43066,-3.94666 4.13066,-5.436 -0.30533,-1.49333 -2.75333,-1.33066 -5.34933,0.34134 -2.52,1.60933 -4.184,3.97466 -3.79733,5.31066"
         style="fill:#e6e8c6;fill-opacity:1;fill-rule:nonzero;stroke:none;stroke-width:0.133333" />
      <path
         id="path98"
         d="m 569.68399,358.64001 c 0.73466,1.224 3.044,0.64266 5.184,-1.32934 2.22133,-2.05333 3.54266,-4.84133 2.81866,-6.21866 -0.73733,-1.39467 -3.244,-0.68267 -5.50666,1.52133 -2.18667,2.13333 -3.26934,4.80933 -2.496,6.02667"
         style="fill:#b7bb6d;fill-opacity:1;fill-rule:nonzero;stroke:none;stroke-width:0.133333" />
    </g>
  </g>
</svg>
